<svg width="39" height="39" viewBox="0 0 39 39" fill="none" xmlns="http://www.w3.org/2000/svg">
<path d="M19.1667 0C8.59817 0.00191667 0 8.60008 0 19.1686C0 29.7371 8.59817 38.3352 19.1686 38.3352C29.7352 38.3352 38.3333 29.7371 38.3352 19.1686C38.3352 8.60008 29.7371 0.00191676 19.1667 0.00191676V0ZM19.1686 34.5019C10.7122 34.5019 3.83333 27.623 3.83333 19.1686C3.83333 10.7161 10.7122 3.83525 19.1667 3.83525C27.623 3.83525 34.5019 10.7161 34.5019 19.1686C34.5 27.623 27.6211 34.5019 19.1686 34.5019Z" fill="#3B0270"/>
<path d="M19.1686 17.2557H11.502V21.0891H19.1686V26.8506L26.8449 19.1743L19.1686 11.5V17.2557Z" fill="#3B0270"/>
</svg>
