<svg width="88" height="88" viewBox="0 0 88 88" fill="none" xmlns="http://www.w3.org/2000/svg">
<path d="M66.2222 4H66.2667M21.7778 30.6667C17.0628 30.6667 12.541 32.5397 9.20699 35.8737C5.87301 39.2076 4 43.7295 4 48.4444V75.1111C4 77.4686 4.9365 79.7295 6.60349 81.3965C8.27049 83.0635 10.5314 84 12.8889 84H75.1111C77.4686 84 79.7295 83.0635 81.3965 81.3965C83.0635 79.7295 84 77.4686 84 75.1111V48.4444C84 43.7295 82.127 39.2076 78.793 35.8737C75.459 32.5397 70.9372 30.6667 66.2222 30.6667M21.7778 30.6667H66.2222M21.7778 30.6667V17.3333M66.2222 30.6667V17.3333M44 17.3333V30.6667M44 4H44.0444M21.7778 4H21.8222" stroke="#FF0909" stroke-width="8" stroke-linecap="round" stroke-linejoin="round"/>
<path d="M4 48.4447C4 52.8891 6.66667 61.778 17.3333 61.778C28 61.778 30.6667 52.8891 30.6667 48.4447C30.6667 52.8891 33.3333 61.778 44 61.778C54.6667 61.778 57.3333 52.8891 57.3333 48.4447C57.3333 52.8891 60 61.778 70.6667 61.778C81.3333 61.778 84 52.8891 84 48.4447" stroke="#FF0909" stroke-width="8" stroke-linecap="round" stroke-linejoin="round"/>
</svg>
