<svg width="30" height="30" viewBox="0 0 30 30" fill="none" xmlns="http://www.w3.org/2000/svg">
<path d="M27.5 0H2.5C1.83696 0 1.20107 0.263392 0.732233 0.732233C0.263392 1.20107 0 1.83696 0 2.5V27.5C0 28.163 0.263392 28.7989 0.732233 29.2678C1.20107 29.7366 1.83696 30 2.5 30H27.5C28.163 30 28.7989 29.7366 29.2678 29.2678C29.7366 28.7989 30 28.163 30 27.5V2.5C30 1.83696 29.7366 1.20107 29.2678 0.732233C28.7989 0.263392 28.163 0 27.5 0ZM2.5 27.5V2.5H27.5V27.5H2.5Z" fill="#6F00FF"/>
<path d="M12.5 21.875L6.25 15.675L8.23667 13.75L12.5 17.9367L21.7633 8.75L23.75 10.725L12.5 21.875Z" fill="#6F00FF"/>
</svg>
