<svg width="236" height="38" viewBox="0 0 236 38" fill="none" xmlns="http://www.w3.org/2000/svg">
<path d="M3.0625 26.4844C2.125 25.9531 1.40625 25.2031 0.90625 24.2344C0.40625 23.2656 0.125 22.3438 0.0625 21.4688C0.15625 20.7188 0.359375 20.1406 0.671875 19.7344C0.953125 19.2969 1.29688 18.9531 1.70312 18.7031C2.10938 18.4219 2.53125 18.2188 2.96875 18.0938C3.40625 17.9375 3.82812 17.8125 4.23438 17.7188L4.9375 17.9531C5.09375 18.1094 5.25 18.25 5.40625 18.375C5.59375 18.5 5.76562 18.625 5.92188 18.75C6.23438 18.625 6.42188 18.4375 6.48438 18.1875C6.57812 17.9375 6.67188 17.6875 6.76562 17.4375C6.85938 17.0938 6.96875 16.75 7.09375 16.4062C7.21875 16.0625 7.375 15.7188 7.5625 15.375C7.53125 15.0938 7.54688 14.8438 7.60938 14.625C7.67188 14.4062 7.73438 14.2188 7.79688 14.0625C7.60938 13.9062 7.46875 13.8281 7.375 13.8281C7.3125 13.7969 7.1875 13.75 7 13.6875C6.90625 13.6875 6.8125 13.6875 6.71875 13.6875C6.625 13.6562 6.51562 13.625 6.39062 13.5938C5.92188 13.25 5.60938 12.9688 5.45312 12.75C5.32812 12.5 5.1875 12.25 5.03125 12C4.875 11.75 4.73438 11.5312 4.60938 11.3438C4.48438 11.1562 4.34375 10.9844 4.1875 10.8281L3.625 10.4531L3.90625 9.89062C3.96875 9.82812 4 9.75 4 9.65625C4 9.53125 3.9375 9.35938 3.8125 9.14062C3.71875 8.73438 3.70312 8.4375 3.76562 8.25L3.85938 7.6875C4.17188 7.28125 4.34375 7.04688 4.375 6.98438L4.84375 6.51562C5.5625 6.32812 6.29688 6.125 7.04688 5.90625C7.79688 5.65625 8.53125 5.40625 9.25 5.15625C9.96875 4.90625 10.7031 4.65625 11.4531 4.40625C12.2031 4.15625 12.9531 3.9375 13.7031 3.75C13.9531 3.53125 14.2188 3.40625 14.5 3.375C14.8125 3.3125 15.0938 3.26562 15.3438 3.23438C15.5625 3.23438 15.7656 3.21875 15.9531 3.1875C16.1406 3.15625 16.2812 3.07812 16.375 2.95312C16.9062 2.76562 17.4219 2.60938 17.9219 2.48438C18.8594 2.23438 20.0938 1.9375 21.625 1.59375C23.1562 1.25 24.875 1 26.7812 0.84375L27.7656 0.796875C27.9531 0.828125 28.1406 0.84375 28.3281 0.84375C28.5156 0.8125 28.7031 0.796875 28.8906 0.796875C30.5156 0.796875 31.5938 1.29688 32.125 2.29688C32.4375 2.45312 32.7188 2.65625 32.9688 2.90625C33.2188 3.125 33.4531 3.34375 33.6719 3.5625C33.8281 3.71875 33.9688 3.85938 34.0938 3.98438C34.2188 4.07812 34.3281 4.15625 34.4219 4.21875L34.7969 4.59375C35.1406 5.34375 35.2031 6.07812 34.9844 6.79688C34.7969 7.17188 34.5938 7.39062 34.375 7.45312C34.1562 7.51562 33.9375 7.57812 33.7188 7.64062L33.1094 7.96875C32.7031 7.9375 32.3906 7.92188 32.1719 7.92188C31.9844 7.92188 31.7656 7.92188 31.5156 7.92188C30.5781 7.92188 29.4844 7.98438 28.2344 8.10938C27.0156 8.20312 25.7656 8.35938 24.4844 8.57812C23.2031 8.76562 21.9531 9.01562 20.7344 9.32812C19.5156 9.60938 18.4531 9.92188 17.5469 10.2656C17.2969 10.4531 16.9688 10.625 16.5625 10.7812C16.4688 10.8125 16.3281 10.8906 16.1406 11.0156C16.1719 11.2656 16.1719 11.5156 16.1406 11.7656C16.1094 11.9844 16.0625 12.2031 16 12.4219C15.9688 12.5781 15.9375 12.75 15.9062 12.9375C15.9062 13.0938 15.8906 13.2656 15.8594 13.4531C15.2031 14.2344 14.8906 15.1562 14.9219 16.2188L14.6875 16.6875C14.5625 16.8125 14.4531 17 14.3594 17.25C14.2969 17.4688 14.2969 17.7031 14.3594 17.9531L14.5469 18.5156C15.1719 18.4531 15.7812 18.3906 16.375 18.3281C17 18.2344 17.6562 18.1406 18.3438 18.0469C19.2188 17.8906 20.0938 17.7656 20.9688 17.6719C21.875 17.5469 22.8125 17.4844 23.7812 17.4844H25.6094L25.1875 17.9062L25.7031 17.9531L25.4219 18.7031C25.6406 18.7969 25.7969 18.875 25.8906 18.9375C26.0156 18.9688 26.125 19.0156 26.2188 19.0781L26.5469 19.5469C26.7031 19.6406 26.8438 19.7969 26.9688 20.0156C27.0938 20.2031 27.1719 20.4688 27.2031 20.8125L27.0625 21.2812L24.8594 24.0938L24.5781 24.4688L24.1094 24.3281C23.5156 24.2969 22.9531 24.3594 22.4219 24.5156C22.1719 24.5781 21.9062 24.6562 21.625 24.75C21.3438 24.8125 21.0625 24.8438 20.7812 24.8438C20.0312 24.9688 19.4062 25.0781 18.9062 25.1719C18.4062 25.2344 17.9062 25.2969 17.4062 25.3594C16.7188 25.4844 16.0469 25.6094 15.3906 25.7344C14.7656 25.8281 14.1719 25.9844 13.6094 26.2031C13.2656 26.2344 13.0625 26.25 13 26.25C12.9375 26.2188 12.875 26.2031 12.8125 26.2031C12.5 26.2031 12.1875 26.25 11.875 26.3438C11.5625 26.4375 11.2656 26.5312 10.9844 26.625C10.7969 26.7812 10.6719 26.9531 10.6094 27.1406C10.5469 27.2969 10.4844 27.4688 10.4219 27.6562C10.3594 27.875 10.2656 28.0938 10.1406 28.3125C10.0469 28.5 9.92188 28.7031 9.76562 28.9219L9.8125 29.7656C9.53125 29.8281 9.39062 29.875 9.39062 29.9062C9.39062 29.9062 9.375 29.9062 9.34375 29.9062C9.34375 30.1562 9.29688 30.3906 9.20312 30.6094C9.14062 30.8281 9.07812 31.0312 9.01562 31.2188C8.95312 31.3438 8.90625 31.4531 8.875 31.5469C8.84375 31.6406 8.82812 31.7344 8.82812 31.8281C9.14062 32.3906 9.21875 33.0312 9.0625 33.75C8.9375 34.3438 8.70312 34.875 8.35938 35.3438C8.01562 35.7812 7.60938 36.125 7.14062 36.375C6.64062 36.4375 6.26562 36.4219 6.01562 36.3281C5.79688 36.2344 5.5625 36.1406 5.3125 36.0469C5.15625 35.9844 5 35.9375 4.84375 35.9062C4.6875 35.8438 4.53125 35.7969 4.375 35.7656L3.8125 35.2969C3.71875 35.1094 3.60938 34.9375 3.48438 34.7812C3.35938 34.5938 3.23438 34.4062 3.10938 34.2188C2.95312 34 2.79688 33.7812 2.64062 33.5625C2.48438 33.3438 2.34375 33.0938 2.21875 32.8125C2 31.7188 1.95312 30.8125 2.07812 30.0938C2.23438 29.3438 2.4375 28.6094 2.6875 27.8906C2.75 27.6406 2.8125 27.4062 2.875 27.1875C2.9375 26.9688 3 26.7344 3.0625 26.4844ZM29.5469 27.4219C29.5781 27.2969 29.5938 27.2031 29.5938 27.1406C29.625 27.0781 29.5781 27 29.4531 26.9062C29.3906 26.6875 29.4375 26.5469 29.5938 26.4844C29.75 26.4219 29.9062 26.3594 30.0625 26.2969C30.2188 24.4219 30.5312 22.7188 31 21.1875C31.5 19.625 32.0312 18.1094 32.5938 16.6406C33.1875 15.1719 33.7656 13.7031 34.3281 12.2344C34.9219 10.7344 35.4062 9.10938 35.7812 7.35938C36.1875 6.95312 36.5156 6.46875 36.7656 5.90625C37.0469 5.34375 37.3125 4.78125 37.5625 4.21875C37.8438 3.625 38.1562 3.0625 38.5 2.53125C38.875 2 39.375 1.5625 40 1.21875C40.2812 1.25 40.5312 1.3125 40.75 1.40625C41 1.46875 41.2344 1.54688 41.4531 1.64062C41.6719 1.73438 41.9062 1.8125 42.1562 1.875C42.4062 1.9375 42.6719 1.96875 42.9531 1.96875C43.0781 2.125 43.1875 2.3125 43.2812 2.53125C43.375 2.71875 43.5 2.89062 43.6562 3.04688L44.5 2.90625C44.9062 3.25 45.2656 3.6875 45.5781 4.21875C45.8906 4.71875 46.1094 5.25 46.2344 5.8125C46.3594 6.34375 46.3438 6.875 46.1875 7.40625C46.0312 7.90625 45.6719 8.29688 45.1094 8.57812C45.1406 8.76562 45.1406 8.90625 45.1094 9C45.0781 9.09375 45.0312 9.1875 44.9688 9.28125C44.9375 9.34375 44.9219 9.42188 44.9219 9.51562C44.9219 9.57812 44.9844 9.67188 45.1094 9.79688C44.7656 10.0781 44.4531 10.4375 44.1719 10.875C43.8906 11.2812 43.6562 11.7188 43.4688 12.1875C43.2812 12.6562 43.125 13.125 43 13.5938C42.9062 14.0625 42.8438 14.5 42.8125 14.9062C43.7188 13.9688 44.7812 13.0938 46 12.2812C47.2188 11.4688 48.2812 10.7031 49.1875 9.98438C49.9062 9.48438 50.5312 9.01562 51.0625 8.57812C51.625 8.10938 52.1875 7.6875 52.75 7.3125C53.3125 6.90625 53.8906 6.53125 54.4844 6.1875C55.1094 5.8125 55.7344 5.40625 56.3594 4.96875C56.6719 4.84375 56.9062 4.8125 57.0625 4.875C57.25 4.9375 57.4219 5.01562 57.5781 5.10938C57.6094 4.89062 57.5625 4.76562 57.4375 4.73438C57.3125 4.67188 57.2656 4.51562 57.2969 4.26562C57.8281 4.10938 58.2969 3.92188 58.7031 3.70312C59.1406 3.48438 59.5938 3.28125 60.0625 3.09375C60.375 3.4375 60.6875 3.8125 61 4.21875C61.3125 4.59375 61.7344 4.79688 62.2656 4.82812C62.4531 5.23438 62.6719 5.54688 62.9219 5.76562C63.2031 5.95312 63.4688 6.14062 63.7188 6.32812C64 6.51562 64.2344 6.75 64.4219 7.03125C64.6094 7.28125 64.7188 7.6875 64.75 8.25C64.625 8.5 64.4688 8.78125 64.2812 9.09375C64.125 9.375 63.9844 9.73438 63.8594 10.1719C63.1094 10.8594 62.3438 11.4688 61.5625 12C60.8125 12.5 60.0312 12.9844 59.2188 13.4531C58.4375 13.9219 57.625 14.4062 56.7812 14.9062C55.9688 15.4062 55.1406 15.9844 54.2969 16.6406C54.1094 16.9219 53.875 17.1719 53.5938 17.3906C53.3125 17.6094 53.0156 17.8281 52.7031 18.0469C52.4219 18.2344 52.1406 18.4375 51.8594 18.6562C51.6094 18.875 51.4062 19.1406 51.25 19.4531C51.125 19.4531 51.0156 19.4688 50.9219 19.5C50.8281 19.5 50.7188 19.5156 50.5938 19.5469C50.4688 19.7969 50.2812 20 50.0312 20.1562C49.8125 20.3125 49.6562 20.5156 49.5625 20.7656C50.125 21.9844 50.8594 22.9062 51.7656 23.5312C52.6719 24.1562 53.6875 24.6094 54.8125 24.8906C55.9375 25.1719 57.1562 25.3281 58.4688 25.3594C59.7812 25.3906 61.1406 25.4062 62.5469 25.4062C62.7031 25.375 62.7656 25.2969 62.7344 25.1719C62.7344 25.0156 62.8281 24.9531 63.0156 24.9844C63.4844 25.1406 63.875 25.3281 64.1875 25.5469C64.5 25.7656 64.7969 26 65.0781 26.25C65.3594 26.5 65.625 26.7656 65.875 27.0469C66.1562 27.2969 66.4688 27.5625 66.8125 27.8438C66.75 29.3125 66.3125 30.5156 65.5 31.4531C64.7188 32.3594 63.6719 33.0938 62.3594 33.6562C60.5469 33.7188 58.9688 33.6719 57.625 33.5156C56.2812 33.3594 54.9531 33.0156 53.6406 32.4844C53.5469 32.4531 53.4531 32.3594 53.3594 32.2031C53.2969 32.0469 53.2344 31.9375 53.1719 31.875C52.9219 31.7188 52.6406 31.6562 52.3281 31.6875C52.0156 31.7188 51.75 31.6875 51.5312 31.5938C51.25 31.4688 50.7812 31.1875 50.125 30.75C49.5 30.3125 48.9219 29.9062 48.3906 29.5312C47.7344 29 47.0938 28.4844 46.4688 27.9844C45.875 27.4531 45.3438 26.875 44.875 26.25C44.7812 26.0938 44.6406 26.0156 44.4531 26.0156C44.2969 26.0156 44.1406 25.9688 43.9844 25.875C42.8906 26.5625 41.9688 27.4219 41.2188 28.4531C40.5 29.4531 39.7969 30.4844 39.1094 31.5469C38.4219 32.5781 37.6875 33.5625 36.9062 34.5C36.1562 35.4062 35.2031 36.1094 34.0469 36.6094C33.7031 36.6094 33.4062 36.5469 33.1562 36.4219C32.9062 36.3281 32.6719 36.1875 32.4531 36C32.2344 35.8438 32.0156 35.6875 31.7969 35.5312C31.5781 35.375 31.3281 35.2656 31.0469 35.2031C31.0469 34.7656 30.9531 34.3594 30.7656 33.9844C30.6094 33.5781 30.4375 33.2188 30.25 32.9062C30.0938 32.5625 29.9688 32.2344 29.875 31.9219C29.8125 31.6094 29.9062 31.2969 30.1562 30.9844C29.8125 30.7031 29.4844 30.4688 29.1719 30.2812C29.3906 30.0625 29.4844 29.8594 29.4531 29.6719C29.4531 29.4844 29.4062 29.2969 29.3125 29.1094C29.2188 28.9219 29.1406 28.7344 29.0781 28.5469C29.0469 28.3281 29.1094 28.0938 29.2656 27.8438C29.3906 27.8125 29.4375 27.75 29.4062 27.6562C29.4062 27.5625 29.4531 27.4844 29.5469 27.4219ZM90.25 22.0312C90.7188 22.0938 91.0469 22.2031 91.2344 22.3594C91.4531 22.5156 91.5938 22.7188 91.6562 22.9688C91.75 23.1875 91.7812 23.4375 91.75 23.7188C91.7188 24 91.7031 24.2812 91.7031 24.5625C90.9219 25.0938 89.8438 25.4688 88.4688 25.6875C87.0938 25.875 85.6562 26.0156 84.1562 26.1094C82.6562 26.1719 81.2031 26.2031 79.7969 26.2031C78.3906 26.2031 77.2812 26.25 76.4688 26.3438C74.7812 26.5312 73.4688 26.7188 72.5312 26.9062C71.625 27.0625 71 27.2188 70.6562 27.375C70.0625 27.3438 69.5938 27.2344 69.25 27.0469C68.9062 26.8594 68.625 26.6406 68.4062 26.3906C68.1875 26.1094 68 25.7969 67.8438 25.4531C67.6875 25.1094 67.5 24.75 67.2812 24.375C67.4062 24.125 67.4375 23.7656 67.375 23.2969C67.3125 22.8281 67.125 22.4688 66.8125 22.2188C67.0625 22.1875 67.25 22.0156 67.375 21.7031C67.5 21.3594 67.5 21.1094 67.375 20.9531C67.875 20.8281 68.4062 20.75 68.9688 20.7188C69.5625 20.6562 70.1406 20.6094 70.7031 20.5781C71.2656 20.5469 71.7969 20.5 72.2969 20.4375C72.8281 20.3438 73.2812 20.2031 73.6562 20.0156C75.2188 19.9844 76.8281 19.9375 78.4844 19.875C80.1719 19.8125 81.75 19.75 83.2188 19.6875C83.75 19.8438 84.375 19.9375 85.0938 19.9688C85.8125 19.9688 86.5156 20.0156 87.2031 20.1094C87.8906 20.1719 88.5156 20.3438 89.0781 20.625C89.6406 20.9062 90.0312 21.375 90.25 22.0312ZM101.688 34.4062C101.5 35.4688 100.969 36.2031 100.094 36.6094C99.6875 36.6406 99.375 36.625 99.1562 36.5625C98.9688 36.5 98.7656 36.4219 98.5469 36.3281C98.2656 36.2031 98.0156 36.125 97.7969 36.0938L97.2812 35.7188C97.2188 35.5625 97.1406 35.4062 97.0469 35.25C96.9531 35.0938 96.8438 34.9375 96.7188 34.7812C96.4688 34.4688 96.2188 34.0781 95.9688 33.6094C95.7812 32.7031 95.75 31.9531 95.875 31.3594C96 30.7344 96.1562 30.125 96.3438 29.5312C96.4062 29.3438 96.4688 29.1562 96.5312 28.9688C96.5938 28.75 96.6562 28.5469 96.7188 28.3594C95.9062 27.9219 95.2969 27.2969 94.8906 26.4844C94.4844 25.6719 94.25 24.8906 94.1875 24.1406C94.2812 23.5469 94.4531 23.0781 94.7031 22.7344C94.9531 22.3594 95.2344 22.0625 95.5469 21.8438C95.8906 21.625 96.2344 21.4531 96.5781 21.3281C96.9531 21.2031 97.3125 21.0938 97.6562 21L98.2656 21.2344C98.5469 21.5156 98.8281 21.7344 99.1094 21.8906C99.3281 21.7969 99.4688 21.6562 99.5312 21.4688C99.625 21.25 99.7031 21.0156 99.7656 20.7656C99.8594 20.4844 99.9531 20.2031 100.047 19.9219C100.172 19.6406 100.312 19.3594 100.469 19.0781C100.438 18.6719 100.5 18.2969 100.656 17.9531C100.438 17.7969 100.203 17.7031 99.9531 17.6719C99.8906 17.6719 99.7344 17.6406 99.4844 17.5781C99.1094 17.2969 98.8438 17.0625 98.6875 16.875C98.5625 16.6562 98.4375 16.4531 98.3125 16.2656C98.125 15.8594 97.8906 15.5312 97.6094 15.2812L97.1406 14.9531L97.375 14.4844C97.4375 14.4219 97.4688 14.3438 97.4688 14.25C97.4688 14.1562 97.4062 14.0156 97.2812 13.8281C97.2188 13.4844 97.2188 13.25 97.2812 13.125L97.375 12.6562C97.625 12.3125 97.75 12.125 97.75 12.0938L98.1719 11.6719C98.7969 11.5156 99.4062 11.3438 100 11.1562C100.625 10.9375 101.25 10.7188 101.875 10.5C102.469 10.3125 103.062 10.125 103.656 9.9375C104.281 9.71875 104.906 9.53125 105.531 9.375C105.75 9.21875 105.984 9.125 106.234 9.09375C106.484 9.03125 106.719 8.98438 106.938 8.95312C107.125 8.92188 107.297 8.90625 107.453 8.90625C107.609 8.875 107.719 8.8125 107.781 8.71875C108.156 8.59375 108.594 8.45312 109.094 8.29688C109.875 8.07812 110.906 7.84375 112.188 7.59375C113.469 7.3125 114.906 7.09375 116.5 6.9375L117.297 6.89062C117.453 6.92188 117.609 6.9375 117.766 6.9375C117.922 6.90625 118.078 6.89062 118.234 6.89062C119.641 6.89062 120.531 7.3125 120.906 8.15625C121.188 8.3125 121.438 8.48438 121.656 8.67188C121.875 8.85938 122.078 9.04688 122.266 9.23438C122.359 9.35938 122.453 9.46875 122.547 9.5625C122.672 9.65625 122.766 9.71875 122.828 9.75C123.359 10.5625 123.531 11.2812 123.344 11.9062C123.062 12.3125 122.703 12.5469 122.266 12.6094L121.75 12.8906C121.406 12.8594 121.141 12.8438 120.953 12.8438C120.797 12.8438 120.625 12.8438 120.438 12.8438C119.656 12.8438 118.75 12.8906 117.719 12.9844C116.688 13.0781 115.625 13.2188 114.531 13.4062C113.469 13.5625 112.438 13.7656 111.438 14.0156C110.438 14.2656 109.562 14.5312 108.812 14.8125L107.969 15.2344C107.75 15.5781 107.625 15.8594 107.594 16.0781C107.562 16.2656 107.531 16.4531 107.5 16.6406C107.469 16.7656 107.438 16.8906 107.406 17.0156C107.406 17.1406 107.391 17.2812 107.359 17.4375C106.828 18.0938 106.562 18.875 106.562 19.7812C106.344 20.1562 106.203 20.4375 106.141 20.625C106.078 20.7812 106.078 20.9844 106.141 21.2344C106.734 21.4844 107.297 21.5781 107.828 21.5156C108.359 21.4531 108.891 21.375 109.422 21.2812C110.141 21.1562 110.875 21.0469 111.625 20.9531C112.406 20.8594 113.203 20.8125 114.016 20.8125H115.516L115.141 21.1875L115.375 21.8438C115.562 21.9375 115.688 22 115.75 22.0312C115.844 22.0625 115.938 22.1094 116.031 22.1719L116.266 22.5938C116.391 22.6562 116.5 22.7656 116.594 22.9219C116.719 23.0781 116.797 23.3125 116.828 23.625L114.906 26.3438L114.25 26.5312C113.719 26.5 113.25 26.5625 112.844 26.7188C112.625 26.7812 112.406 26.8438 112.188 26.9062C111.969 26.9375 111.734 26.9531 111.484 26.9531C110.859 27.0781 110.328 27.1719 109.891 27.2344C109.484 27.2969 109.062 27.3594 108.625 27.4219C108.062 27.4844 107.516 27.5781 106.984 27.7031C106.453 27.7969 105.953 27.9375 105.484 28.125C105.172 28.125 104.953 28.125 104.828 28.125C104.578 28.125 104.312 28.1719 104.031 28.2656C103.781 28.3281 103.547 28.3906 103.328 28.4531C103.172 28.5781 103.062 28.7188 103 28.875C102.938 29 102.875 29.1406 102.812 29.2969C102.688 29.7344 102.516 30.0938 102.297 30.375V31.0781C102.047 31.3906 101.891 31.6406 101.828 31.8281C101.797 31.9844 101.75 32.1406 101.688 32.2969C101.625 32.3906 101.578 32.4844 101.547 32.5781C101.516 32.6406 101.5 32.7188 101.5 32.8125C101.75 33.2812 101.812 33.8125 101.688 34.4062ZM126.906 32.7188C127.062 33.6562 127 34.3906 126.719 34.9219C126.469 35.4531 126.094 35.8438 125.594 36.0938C125.125 36.375 124.578 36.5312 123.953 36.5625C123.328 36.5938 122.734 36.5625 122.172 36.4688C121.859 36.0312 121.578 35.4844 121.328 34.8281C121.078 34.1719 120.844 33.5 120.625 32.8125C120.406 32.0938 120.203 31.3906 120.016 30.7031C119.859 30.0156 119.719 29.4062 119.594 28.875C119.75 28.5 119.844 28.0781 119.875 27.6094C119.938 27.1094 119.969 26.6094 119.969 26.1094C120 25.6094 120.016 25.1094 120.016 24.6094C120.047 24.0781 120.094 23.5781 120.156 23.1094C120.375 21.7969 120.688 20.5469 121.094 19.3594C121.531 18.1719 121.875 16.9375 122.125 15.6562C122.188 15.375 122.156 15.1094 122.031 14.8594C121.938 14.6094 121.922 14.375 121.984 14.1562C122.016 14.0312 122.109 13.9531 122.266 13.9219C122.422 13.8594 122.516 13.75 122.547 13.5938C122.641 13.25 122.656 12.9688 122.594 12.75C122.562 12.5312 122.625 12.2656 122.781 11.9531C122.938 11.7031 123.125 11.3438 123.344 10.875C123.594 10.375 123.688 9.85938 123.625 9.32812C123.906 9.14062 124.172 8.92188 124.422 8.67188C124.672 8.42188 124.922 8.20312 125.172 8.01562C125.453 7.79688 125.75 7.60938 126.062 7.45312C126.406 7.29688 126.812 7.21875 127.281 7.21875C127.531 7.53125 127.688 7.875 127.75 8.25C127.844 8.625 127.922 9 127.984 9.375C128.078 9.75 128.203 10.1094 128.359 10.4531C128.516 10.7656 128.781 11.0156 129.156 11.2031C129.156 11.4531 129.156 11.7656 129.156 12.1406C129.156 12.5156 129.172 12.8906 129.203 13.2656C129.234 13.6094 129.297 13.9375 129.391 14.25C129.516 14.5312 129.703 14.7188 129.953 14.8125C129.391 16.3125 128.859 17.7969 128.359 19.2656C127.891 20.7344 127.5 22.2188 127.188 23.7188C126.875 25.1875 126.672 26.6719 126.578 28.1719C126.516 29.6719 126.625 31.1875 126.906 32.7188ZM159.016 13.4531C158.234 13.4531 157.391 13.5156 156.484 13.6406C155.578 13.7344 154.688 13.8438 153.812 13.9688C153.188 14.0625 152.578 14.1406 151.984 14.2031C151.422 14.2656 150.906 14.3125 150.438 14.3438C150.219 15.0312 150 15.6406 149.781 16.1719C149.562 16.7031 149.328 17.2188 149.078 17.7188C148.828 18.25 148.594 18.7969 148.375 19.3594C148.188 19.8906 148 20.4688 147.812 21.0938C147.5 21.5938 147.234 22.0625 147.016 22.5C146.828 22.9062 146.672 23.375 146.547 23.9062C146.172 24.375 145.891 24.875 145.703 25.4062C145.516 25.9062 145.375 26.3438 145.281 26.7188L145.094 27.2812C144.906 27.4688 144.797 27.625 144.766 27.75C144.734 27.8438 144.656 27.9375 144.531 28.0312C144.5 28.375 144.391 28.7188 144.203 29.0625C144.141 29.2188 144.094 29.375 144.062 29.5312C144.031 29.6562 144.016 29.75 144.016 29.8125C144.016 30.125 143.938 30.3281 143.781 30.4219C143.812 30.5781 143.812 30.75 143.781 30.9375C143.75 31.0938 143.719 31.25 143.688 31.4062C143.594 31.7812 143.562 32.0781 143.594 32.2969C143.688 32.4219 143.766 32.5312 143.828 32.625C143.922 32.7188 143.984 32.8438 144.016 33C144.203 33.125 144.344 33.2031 144.438 33.2344C144.562 33.3281 144.75 33.4375 145 33.5625L145.422 34.0312C145.578 34.9375 145.438 35.6562 145 36.1875C144.531 36.7812 143.734 37.0781 142.609 37.0781H142.047C141.891 36.9219 141.797 36.7969 141.766 36.7031C141.516 36.6094 141.312 36.5312 141.156 36.4688C141 36.4062 140.859 36.2812 140.734 36.0938C140.328 35.9062 140 35.75 139.75 35.625L139.328 35.3906C139.328 35.0469 139.328 34.8594 139.328 34.8281C139.109 34.5469 138.938 34.2344 138.812 33.8906C138.719 33.5469 138.641 33.2031 138.578 32.8594C138.516 32.5781 138.438 32.3125 138.344 32.0625C138.281 31.8125 138.188 31.5938 138.062 31.4062C138 29.5938 138.172 28.0625 138.578 26.8125C138.984 25.5625 139.406 24.3594 139.844 23.2031C140.094 22.5781 140.344 21.9531 140.594 21.3281C140.844 20.6719 141.062 20 141.25 19.3125L141.672 18.8438C141.891 18.3438 142.062 17.9375 142.188 17.625C142.344 17.2812 142.5 16.9375 142.656 16.5938C142.75 16.375 142.828 16.1719 142.891 15.9844C142.984 15.7656 143.062 15.5781 143.125 15.4219C142.938 15.4219 142.766 15.4375 142.609 15.4688C142.453 15.4688 142.297 15.4844 142.141 15.5156C141.953 15.5469 141.781 15.5781 141.625 15.6094C141.469 15.6094 141.312 15.6094 141.156 15.6094C140.938 15.6094 140.781 15.5938 140.688 15.5625C140.344 15.7188 139.969 15.7969 139.562 15.7969H139.094C139 15.7969 138.906 15.7969 138.812 15.7969C138.75 15.7656 138.688 15.75 138.625 15.75C138.312 15.75 138.062 15.7969 137.875 15.8906C137.5 15.8906 137.141 15.8906 136.797 15.8906H136.328C136.266 15.8906 136.188 15.9062 136.094 15.9375C136 15.9375 135.922 15.9375 135.859 15.9375C135.641 15.9375 135.406 15.9219 135.156 15.8906C134.906 15.8281 134.641 15.7188 134.359 15.5625C133.984 15.0625 133.734 14.7969 133.609 14.7656L133.188 14.2031C133.156 14.0156 133.109 13.8438 133.047 13.6875C132.984 13.5 132.922 13.2969 132.859 13.0781C132.734 12.7656 132.609 12.4375 132.484 12.0938C132.391 11.7188 132.344 11.2812 132.344 10.7812C132.375 10.5312 132.438 10.3438 132.531 10.2188C132.625 10.0938 132.703 9.98438 132.766 9.89062L132.906 9.1875L133.516 9.23438H134.828C135.828 9.23438 136.844 9.20312 137.875 9.14062C138.906 9.04688 139.969 8.95312 141.062 8.85938C141.688 8.79688 142.312 8.73438 142.938 8.67188C143.594 8.60938 144.266 8.54688 144.953 8.48438C145.078 8.20312 145.203 7.9375 145.328 7.6875L145.797 7.45312C146.359 7.42188 146.75 7.5 146.969 7.6875C147.219 7.84375 147.422 8 147.578 8.15625C148.266 8.09375 148.953 8.03125 149.641 7.96875C150.359 7.875 151.078 7.76562 151.797 7.64062C152.859 7.48438 153.922 7.34375 154.984 7.21875C156.078 7.09375 157.125 7.03125 158.125 7.03125C158.562 7.03125 158.984 7.04688 159.391 7.07812C159.797 7.10938 160.172 7.15625 160.516 7.21875L160.984 7.54688C161.078 7.73438 161.203 7.90625 161.359 8.0625C161.547 8.21875 161.734 8.375 161.922 8.53125C162.297 8.875 162.672 9.28125 163.047 9.75C163.422 10.2188 163.562 10.9062 163.469 11.8125C163.219 12.1875 163.031 12.4062 162.906 12.4688L162.484 13.0312L162.016 12.9844C161.828 12.9844 161.656 13.0156 161.5 13.0781C161.344 13.1094 161.188 13.1562 161.031 13.2188C160.906 13.2812 160.781 13.3438 160.656 13.4062C160.531 13.4375 160.391 13.4688 160.234 13.5C159.953 13.5 159.719 13.5 159.531 13.5C159.375 13.4688 159.203 13.4531 159.016 13.4531ZM164.969 27.4688C164.688 27.5312 164.484 27.7031 164.359 27.9844C164.234 28.2344 164.109 28.5 163.984 28.7812C163.891 29.0625 163.781 29.3281 163.656 29.5781C163.562 29.7969 163.406 29.9062 163.188 29.9062C163.156 30.1562 163.062 30.375 162.906 30.5625C162.781 30.75 162.656 30.9531 162.531 31.1719C162.406 31.3594 162.312 31.5781 162.25 31.8281C162.188 32.0469 162.219 32.3125 162.344 32.625C162.094 32.8125 161.938 33.0781 161.875 33.4219C161.812 33.7656 161.734 34.0938 161.641 34.4062C161.578 34.7188 161.453 34.9844 161.266 35.2031C161.078 35.4219 160.734 35.5156 160.234 35.4844C160.141 35.6094 160.125 35.6875 160.188 35.7188C160.25 35.75 160.297 35.8594 160.328 36.0469C159.984 35.9844 159.719 36 159.531 36.0938C159.375 36.2188 159.172 36.2969 158.922 36.3281C158.328 36.1406 157.828 35.8125 157.422 35.3438C157.047 34.875 156.703 34.3594 156.391 33.7969C156.109 33.2031 155.844 32.6094 155.594 32.0156C155.375 31.4219 155.156 30.9062 154.938 30.4688C155.031 30.125 155.047 29.7969 154.984 29.4844C154.922 29.1406 154.812 28.8594 154.656 28.6406C156.188 25.3906 157.859 21.9219 159.672 18.2344C161.484 14.5469 163.203 10.9062 164.828 7.3125C165.547 7.59375 166.25 7.92188 166.938 8.29688C167.656 8.64062 168.297 9.04688 168.859 9.51562C169.453 9.98438 169.953 10.5312 170.359 11.1562C170.766 11.75 171.031 12.4219 171.156 13.1719C171.094 13.3594 171.016 13.4375 170.922 13.4062C170.859 13.3438 170.797 13.3594 170.734 13.4531C170.859 13.6094 170.922 13.7188 170.922 13.7812C170.953 13.8438 170.953 13.9062 170.922 13.9688C170.922 14.0312 170.922 14.125 170.922 14.25C170.922 14.3438 170.969 14.4844 171.062 14.6719C170.938 14.6406 170.844 14.6562 170.781 14.7188C170.75 14.7812 170.656 14.7812 170.5 14.7188C170.625 15.0625 170.656 15.3438 170.594 15.5625C170.562 15.7812 170.5 15.9844 170.406 16.1719C170.312 16.3281 170.234 16.5156 170.172 16.7344C170.109 16.9219 170.125 17.1719 170.219 17.4844C170.125 17.4844 170.047 17.5156 169.984 17.5781C169.953 17.6094 169.922 17.6562 169.891 17.7188C169.859 17.75 169.812 17.7969 169.75 17.8594C169.719 17.8906 169.656 17.8906 169.562 17.8594C169.656 18.5469 169.688 19.2344 169.656 19.9219C169.625 20.6094 169.594 21.3125 169.562 22.0312C169.562 22.7188 169.578 23.4531 169.609 24.2344C169.641 24.9844 169.75 25.7656 169.938 26.5781C171.062 25.9219 171.953 25.0781 172.609 24.0469C173.297 23.0156 173.844 21.8594 174.25 20.5781C174.688 19.2969 175.016 17.9219 175.234 16.4531C175.453 14.9844 175.688 13.4844 175.938 11.9531C176.219 11.6719 176.438 11.3281 176.594 10.9219C176.75 10.5156 176.891 10.0938 177.016 9.65625C177.141 9.1875 177.266 8.73438 177.391 8.29688C177.516 7.82812 177.672 7.40625 177.859 7.03125C178.328 7.09375 178.719 7.25 179.031 7.5C179.375 7.71875 179.688 7.96875 179.969 8.25C180.25 8.5 180.547 8.75 180.859 9C181.172 9.21875 181.562 9.35938 182.031 9.42188C182.406 9.95312 182.75 10.4688 183.062 10.9688C183.375 11.4688 183.578 12 183.672 12.5625C183.516 12.8125 183.391 13.0938 183.297 13.4062C183.234 13.7188 183.156 14.0312 183.062 14.3438C182.969 14.6562 182.844 14.9531 182.688 15.2344C182.531 15.4844 182.312 15.7031 182.031 15.8906C181.938 16.7031 181.812 17.4531 181.656 18.1406C181.531 18.7969 181.391 19.4531 181.234 20.1094C181.109 20.7656 181 21.4531 180.906 22.1719C180.812 22.8594 180.781 23.625 180.812 24.4688C180.562 25.1875 180.297 25.9531 180.016 26.7656C179.734 27.5781 179.516 28.3125 179.359 28.9688C178.859 29.375 178.469 29.8594 178.188 30.4219C177.906 30.9844 177.609 31.5469 177.297 32.1094C177.172 32.2344 177.094 32.2656 177.062 32.2031C177.031 32.1406 176.922 32.0938 176.734 32.0625C176.766 32.1875 176.766 32.2812 176.734 32.3438C176.703 32.4062 176.656 32.4688 176.594 32.5312C176.562 32.5625 176.531 32.625 176.5 32.7188C176.5 32.8125 176.531 32.9375 176.594 33.0938C176.156 33.2812 175.766 33.5469 175.422 33.8906C175.078 34.2344 174.703 34.5469 174.297 34.8281C173.922 35.1094 173.453 35.2969 172.891 35.3906C172.359 35.4844 171.656 35.375 170.781 35.0625C169.5 34.125 168.359 33.0469 167.359 31.8281C166.391 30.6094 165.594 29.1562 164.969 27.4688ZM208.609 9.60938C208.641 9.82812 208.641 10 208.609 10.125C208.609 10.2188 208.594 10.3125 208.562 10.4062C208.562 10.5 208.562 10.6094 208.562 10.7344C208.562 10.8281 208.594 10.9844 208.656 11.2031C208 12.2656 207.234 13 206.359 13.4062C205.516 13.7812 204.594 14.0625 203.594 14.25C202.594 14.4062 201.562 14.5781 200.5 14.7656C199.469 14.9531 198.438 15.3594 197.406 15.9844C197 15.8281 196.625 15.8281 196.281 15.9844C195.969 16.1406 195.5 16.1875 194.875 16.125C194.688 16.3125 194.453 16.4531 194.172 16.5469C193.891 16.6094 193.609 16.6875 193.328 16.7812C193.453 17.0625 193.5 17.3594 193.469 17.6719C193.469 17.9531 193.516 18.1875 193.609 18.375C194.703 18.4688 195.906 18.4531 197.219 18.3281C198.562 18.2031 199.875 18.125 201.156 18.0938C201.188 18.25 201.172 18.3594 201.109 18.4219C201.047 18.4531 201.031 18.5312 201.062 18.6562C201.281 18.8125 201.5 19.0156 201.719 19.2656C201.938 19.4844 202.156 19.7031 202.375 19.9219C202.594 20.1406 202.812 20.3281 203.031 20.4844C203.281 20.6094 203.562 20.6562 203.875 20.625C204 20.875 204.078 21.1562 204.109 21.4688C204.172 21.75 204.141 22.0469 204.016 22.3594C203.516 22.7031 203.016 23.0625 202.516 23.4375C202.016 23.7812 201.484 24.0938 200.922 24.375C200.391 24.6562 199.812 24.8906 199.188 25.0781C198.594 25.2344 197.922 25.2969 197.172 25.2656C197.016 25.2656 196.891 25.2656 196.797 25.2656C196.734 25.2656 196.641 25.2188 196.516 25.125C196.266 25.2812 195.906 25.3281 195.438 25.2656C195 25.2031 194.656 25.25 194.406 25.4062C194.062 25.25 193.641 25.1875 193.141 25.2188C192.672 25.2188 192.25 25.1562 191.875 25.0312C191.375 25.6875 190.922 26.3906 190.516 27.1406C190.109 27.8906 189.75 28.6875 189.438 29.5312C190.5 29.6875 191.375 29.75 192.062 29.7188C192.781 29.6875 193.453 29.6406 194.078 29.5781C194.703 29.4844 195.344 29.4062 196 29.3438C196.656 29.25 197.484 29.2188 198.484 29.25C199.109 28.9062 199.844 28.6875 200.688 28.5938C201.562 28.4688 202.359 28.2812 203.078 28.0312C203.328 28.125 203.547 28.2969 203.734 28.5469C203.922 28.7656 204.094 28.9844 204.25 29.2031C204.438 29.3906 204.625 29.5625 204.812 29.7188C205 29.875 205.234 29.9375 205.516 29.9062C205.641 30.0312 205.719 30.1875 205.75 30.375C205.812 30.5312 205.859 30.6875 205.891 30.8438C205.922 31 205.969 31.1406 206.031 31.2656C206.125 31.3594 206.266 31.3906 206.453 31.3594C205.984 32.3906 205.438 33.1875 204.812 33.75C204.219 34.2812 203.531 34.6875 202.75 34.9688C201.969 35.25 201.094 35.4688 200.125 35.625C199.188 35.7812 198.141 35.9688 196.984 36.1875C196.703 36.25 196.469 36.2344 196.281 36.1406C196.094 36.0781 195.875 36.0469 195.625 36.0469C194.906 36.2031 194.047 36.3438 193.047 36.4688C192.047 36.5938 191.031 36.6406 190 36.6094C188.969 36.5781 187.984 36.4375 187.047 36.1875C186.109 35.9688 185.344 35.5625 184.75 34.9688C184.5 34.75 184.328 34.5 184.234 34.2188C184.172 33.9062 183.969 33.6719 183.625 33.5156C183.594 33.1094 183.531 32.6562 183.438 32.1562C183.344 31.6562 183.25 31.1406 183.156 30.6094C183.062 30.0469 182.984 29.5 182.922 28.9688C182.891 28.4375 182.922 27.9531 183.016 27.5156C183.109 27.0469 183.297 26.625 183.578 26.25C183.891 25.875 184 25.4688 183.906 25.0312C184.062 25 184.156 24.9219 184.188 24.7969C184.219 24.6406 184.344 24.5781 184.562 24.6094C184.75 24.0469 184.953 23.5156 185.172 23.0156C185.391 22.5156 185.609 22.0312 185.828 21.5625C186.078 21.0938 186.312 20.625 186.531 20.1562C186.781 19.6562 187.016 19.1094 187.234 18.5156C186.797 18.1094 186.469 17.6719 186.25 17.2031C186.062 16.7031 185.922 16.2188 185.828 15.75C185.734 15.25 185.656 14.75 185.594 14.25C185.531 13.7188 185.422 13.1875 185.266 12.6562C185.578 12.1875 185.953 11.8125 186.391 11.5312C186.859 11.2188 187.359 10.9688 187.891 10.7812C188.422 10.5938 189 10.4375 189.625 10.3125C190.25 10.1875 190.906 10.0469 191.594 9.89062C192.844 9.48438 193.953 9.17188 194.922 8.95312C195.922 8.73438 196.891 8.5625 197.828 8.4375C198.797 8.28125 199.797 8.14062 200.828 8.01562C201.859 7.89062 203.031 7.70312 204.344 7.45312C204.625 7.73438 204.891 7.875 205.141 7.875C205.266 7.59375 205.406 7.51562 205.562 7.64062C205.75 7.73438 205.828 7.64062 205.797 7.35938C206.109 7.89062 206.5 8.34375 206.969 8.71875C207.469 9.0625 208.016 9.35938 208.609 9.60938ZM208.234 14.9062C208.453 14.25 208.797 13.6875 209.266 13.2188C209.766 12.75 210.297 12.3594 210.859 12.0469C211.453 11.7031 212.062 11.4219 212.688 11.2031C213.312 10.9844 213.906 10.7969 214.469 10.6406C215.719 10.1094 217.047 9.60938 218.453 9.14062C219.891 8.64062 221.344 8.20312 222.812 7.82812C224.312 7.45312 225.844 7.21875 227.406 7.125C228.969 7 230.609 7.1875 232.328 7.6875C232.422 8 232.562 8.29688 232.75 8.57812C232.938 8.85938 233.125 9.14062 233.312 9.42188C233.531 9.70312 233.719 9.98438 233.875 10.2656C234.031 10.5156 234.125 10.7812 234.156 11.0625C234.469 11.3438 234.719 11.6562 234.906 12C235.094 12.3125 235.125 12.7344 235 13.2656C234.688 13.5156 234.375 13.75 234.062 13.9688C233.781 14.1562 233.469 14.3281 233.125 14.4844C231.969 14.2031 230.797 14.1094 229.609 14.2031C228.422 14.2969 227.359 14.375 226.422 14.4375C226.141 14.1562 225.797 14.0156 225.391 14.0156C225.016 14.0156 224.609 14.0781 224.172 14.2031C223.766 14.3281 223.344 14.4531 222.906 14.5781C222.5 14.7031 222.109 14.7344 221.734 14.6719C221.422 14.9219 221.031 15.0938 220.562 15.1875C220.125 15.25 219.641 15.3125 219.109 15.375C219.078 15.5312 219.109 15.6406 219.203 15.7031C219.297 15.7344 219.312 15.8281 219.25 15.9844C219.438 16.2031 219.672 16.3594 219.953 16.4531C220.266 16.5469 220.578 16.6406 220.891 16.7344C221.234 16.8281 221.531 16.9531 221.781 17.1094C222.031 17.2344 222.203 17.4531 222.297 17.7656C222.766 17.7656 223.172 17.875 223.516 18.0938C223.859 18.3125 224.141 18.5781 224.359 18.8906C224.578 19.2031 224.734 19.5469 224.828 19.9219C224.953 20.2656 225.016 20.5781 225.016 20.8594C225.109 21.1094 225.219 21.2188 225.344 21.1875C225.469 21.1562 225.609 21.2188 225.766 21.375C225.859 21.7812 226.094 22.2031 226.469 22.6406C226.844 23.0469 227.141 23.5 227.359 24C227.422 24.7812 227.469 25.4844 227.5 26.1094C227.531 26.7031 227.422 27.3125 227.172 27.9375C226.703 29.0938 226.047 30.125 225.203 31.0312C224.391 31.9375 223.453 32.75 222.391 33.4688C221.359 34.1562 220.25 34.75 219.062 35.25C217.875 35.75 216.719 36.1719 215.594 36.5156C215.469 36.4844 215.344 36.4844 215.219 36.5156C215.094 36.5469 215.062 36.4688 215.125 36.2812C214.875 36.5 214.594 36.6406 214.281 36.7031C214 36.7656 213.688 36.7812 213.344 36.75C213 36.75 212.641 36.7344 212.266 36.7031C211.922 36.6719 211.594 36.6875 211.281 36.75C211.062 36.5312 210.859 36.3125 210.672 36.0938C210.516 35.9062 210.391 35.6562 210.297 35.3438C210.141 35.3438 210.062 35.2656 210.062 35.1094C210.094 34.9531 210.047 34.875 209.922 34.875C210.109 34.5625 210.188 34.3906 210.156 34.3594C210.156 34.2969 210.109 34.25 210.016 34.2188C209.953 34.1875 209.891 34.1562 209.828 34.125C209.766 34.0625 209.75 33.9844 209.781 33.8906C209.906 33.6406 209.953 33.3594 209.922 33.0469C209.891 32.7031 209.859 32.3594 209.828 32.0156C209.797 31.6719 209.812 31.3438 209.875 31.0312C209.969 30.7188 210.203 30.4688 210.578 30.2812C211.641 30.4062 212.641 30.375 213.578 30.1875C214.547 29.9688 215.453 29.6719 216.297 29.2969C217.141 28.9219 217.938 28.5156 218.688 28.0781C219.469 27.6406 220.234 27.25 220.984 26.9062C221.078 26.625 221.203 26.3906 221.359 26.2031C221.547 26.0156 221.734 25.8438 221.922 25.6875C222.109 25.5312 222.281 25.3594 222.438 25.1719C222.594 24.9844 222.703 24.75 222.766 24.4688C222.797 24.25 222.734 24.125 222.578 24.0938C222.453 24.0312 222.391 23.9062 222.391 23.7188L221.875 23.5781C221.281 23.2344 220.609 22.9531 219.859 22.7344C219.109 22.4844 218.469 22.2188 217.938 21.9375C217.594 22.125 217.266 22.1719 216.953 22.0781C216.672 21.9844 216.297 21.8906 215.828 21.7969C214.766 21.7344 213.734 21.625 212.734 21.4688C211.766 21.3125 210.828 21.0312 209.922 20.625C209.859 20.4688 209.781 20.3281 209.688 20.2031C209.594 20.0781 209.422 20.0469 209.172 20.1094C208.984 19.8594 208.797 19.625 208.609 19.4062C208.422 19.1562 208.25 18.8906 208.094 18.6094C208.156 18.2344 208.203 17.9219 208.234 17.6719C208.266 17.3906 208.172 17.125 207.953 16.875C208.078 16.4688 208.172 16.1406 208.234 15.8906C208.297 15.6406 208.297 15.3125 208.234 14.9062Z" fill="#6F00FF"/>
</svg>
