<svg width="47" height="46" viewBox="0 0 47 46" fill="none" xmlns="http://www.w3.org/2000/svg">
<path fill-rule="evenodd" clip-rule="evenodd" d="M46.1665 23C46.1665 35.7017 35.8683 46 23.1665 46C10.4648 46 0.166504 35.7017 0.166504 23C0.166504 10.2983 10.4648 0 23.1665 0C35.8683 0 46.1665 10.2983 46.1665 23ZM23.9907 16.9797C21.7539 17.9093 17.2823 19.8356 10.5778 22.7566C9.48917 23.1898 8.918 23.6133 8.86625 24.0273C8.77809 24.7288 9.65592 25.0048 10.8481 25.3786C11.011 25.4303 11.1797 25.4821 11.3522 25.5396C12.5271 25.921 14.1064 26.3676 14.9268 26.3848C15.6723 26.4002 16.5042 26.0935 17.4223 25.4648C23.6859 21.2348 26.9193 19.0977 27.1225 19.0517C27.2663 19.0191 27.4656 18.9769 27.5998 19.0977C27.7339 19.2165 27.7205 19.4427 27.7071 19.504C27.6189 19.8739 24.1804 23.0728 22.3979 24.7288C21.8421 25.2444 21.4492 25.6105 21.3687 25.6948C21.1885 25.8808 21.0045 26.059 20.8282 26.2296C19.7357 27.2799 18.9192 28.0696 20.8742 29.3576C21.8133 29.9767 22.5647 30.4884 23.3141 30.9982C24.1325 31.556 24.949 32.1118 26.007 32.8057C26.2753 32.982 26.5322 33.1641 26.7833 33.3423C27.7358 34.0228 28.5926 34.6322 29.6506 34.5364C30.2639 34.4789 30.9003 33.902 31.2223 32.1789C31.9832 28.1041 33.482 19.2798 33.8289 15.6419C33.85 15.3399 33.8372 15.0364 33.7906 14.7373C33.7627 14.4956 33.645 14.2733 33.4609 14.1143C33.1868 13.8901 32.7613 13.8422 32.5697 13.846C31.7053 13.8613 30.3789 14.3232 23.9907 16.9797Z" fill="#6F00FF"/>
</svg>
